# Blender 4.0.2
# www.blender.org
mtllib car.mtl
o Car2
v 0.000000 0.216907 -0.034527
v 0.000000 0.217163 0.165536
v 0.095712 0.213928 0.165536
v 0.095712 0.213672 -0.034527
v 0.121323 0.064705 0.133818
v 0.114305 0.028699 0.133818
v 0.114305 0.030644 -0.142464
v 0.113957 0.090293 0.319706
v 0.114999 0.160714 0.307956
v 0.000000 0.160714 0.307956
v 0.121322 0.064705 -0.142464
v 0.119792 0.150240 -0.132279
v 0.000000 0.150240 -0.132279
v 0.110163 0.118991 -0.298379
v 0.124591 0.090293 0.208950
v 0.119792 0.160714 0.237178
v 0.124303 0.089705 0.151981
v 0.000000 0.118991 -0.303754
v 0.000000 0.090293 0.319706
v 0.117444 0.089705 -0.219406
v 0.121801 0.089705 -0.160628
v 0.119922 0.090150 0.327071
v 0.121720 0.064705 0.228924
v 0.116156 0.082377 -0.230060
v 0.000000 0.160714 0.237178
v 0.124772 0.099255 0.181371
v 0.110163 0.082376 -0.308229
v 0.000000 0.082376 -0.313605
v 0.119900 0.099254 -0.190017
v 0.119677 0.040973 0.228924
v 0.109746 0.031203 -0.239728
v 0.112089 0.050278 -0.315007
v 0.116262 0.082376 -0.315453
v 0.000000 0.050278 -0.323595
v 0.000000 0.082376 -0.323595
v 0.000000 0.053346 0.329706
v 0.120211 0.053346 0.326757
v 0.000000 0.090293 0.329706
v 0.066198 0.064705 0.133818
v 0.061299 0.028699 0.133818
v 0.066197 0.064705 -0.142464
v 0.066676 0.089705 -0.160628
v 0.066594 0.064705 0.228924
v 0.069465 0.090294 0.208949
v 0.062319 0.089705 -0.219406
v 0.061031 0.082377 -0.230061
v 0.069647 0.099255 0.181371
v 0.069178 0.089705 0.151982
v 0.064775 0.099254 -0.190017
v 0.061299 0.030644 -0.142464
v 0.064552 0.040972 0.228924
v 0.061031 0.031203 -0.239727
v -0.095712 0.213928 0.165536
v -0.095712 0.213672 -0.034527
v -0.121323 0.064705 0.133818
v -0.114305 0.030644 -0.142464
v -0.114305 0.028699 0.133818
v -0.113957 0.090293 0.319706
v -0.114999 0.160714 0.307957
v -0.121322 0.064705 -0.142464
v -0.119792 0.150240 -0.132279
v -0.110163 0.118991 -0.298379
v -0.124591 0.090293 0.208950
v -0.119792 0.160714 0.237178
v -0.124303 0.089705 0.151982
v -0.117444 0.089705 -0.219406
v -0.121801 0.089705 -0.160628
v -0.119922 0.090150 0.327071
v -0.121720 0.064705 0.228924
v -0.116156 0.082377 -0.230060
v -0.124772 0.099255 0.181371
v -0.110163 0.082376 -0.308229
v -0.119900 0.099254 -0.190017
v -0.119677 0.040973 0.228924
v -0.109746 0.031203 -0.239728
v -0.116262 0.082376 -0.315453
v -0.112089 0.050278 -0.315007
v -0.120211 0.053346 0.326757
v -0.066198 0.064705 0.133818
v -0.061299 0.028699 0.133818
v -0.066197 0.064705 -0.142464
v -0.066676 0.089705 -0.160628
v -0.066594 0.064705 0.228924
v -0.069465 0.090294 0.208949
v -0.062319 0.089705 -0.219406
v -0.061031 0.082377 -0.230061
v -0.069647 0.099255 0.181371
v -0.069178 0.089705 0.151982
v -0.064775 0.099254 -0.190017
v -0.061299 0.030644 -0.142464
v -0.064552 0.040972 0.228924
v -0.061031 0.031203 -0.239727
v -0.144920 0.127753 -0.073095
v -0.144920 0.127753 -0.081095
v -0.120006 0.127753 -0.086758
v -0.120006 0.127753 -0.078758
v -0.144920 0.145321 -0.073095
v -0.120006 0.145321 -0.078758
v -0.120006 0.145321 -0.086758
v -0.144920 0.145321 -0.081095
v 0.144920 0.127753 -0.073095
v 0.120006 0.127753 -0.078758
v 0.120006 0.127753 -0.086758
v 0.144920 0.127753 -0.081095
v 0.144920 0.145321 -0.073095
v 0.144920 0.145321 -0.081095
v 0.120006 0.145321 -0.086758
v 0.120006 0.145321 -0.078758
v -0.090214 0.089930 -0.190304
v -0.090214 0.076079 -0.222936
v -0.119156 0.076079 -0.222936
v -0.119155 0.089930 -0.190304
v -0.090214 0.043210 -0.236216
v -0.119156 0.043210 -0.236216
v -0.090214 0.010577 -0.222365
v -0.119156 0.010577 -0.222365
v -0.090214 -0.002702 -0.189496
v -0.119156 -0.002702 -0.189496
v -0.090214 0.011149 -0.156864
v -0.119156 0.011149 -0.156864
v -0.090214 0.044018 -0.143584
v -0.119156 0.044018 -0.143584
v -0.090214 0.076650 -0.157435
v -0.119156 0.076650 -0.157435
v -0.090214 0.089930 0.181101
v -0.090214 0.076079 0.148469
v -0.119156 0.076079 0.148469
v -0.119155 0.089930 0.181101
v -0.090214 0.043210 0.135189
v -0.119156 0.043210 0.135189
v -0.090214 0.010578 0.149041
v -0.119156 0.010578 0.149041
v -0.090214 -0.002702 0.181910
v -0.119156 -0.002702 0.181910
v -0.090214 0.011149 0.214542
v -0.119156 0.011149 0.214542
v -0.090214 0.044018 0.227822
v -0.119156 0.044018 0.227822
v -0.090214 0.076650 0.213970
v -0.119156 0.076650 0.213970
v 0.090214 0.089930 -0.190304
v 0.119155 0.089930 -0.190304
v 0.119155 0.076079 -0.222936
v 0.090214 0.076079 -0.222936
v 0.119156 0.043210 -0.236216
v 0.090214 0.043210 -0.236216
v 0.119156 0.010577 -0.222365
v 0.090214 0.010577 -0.222365
v 0.119156 -0.002702 -0.189496
v 0.090214 -0.002702 -0.189496
v 0.119156 0.011149 -0.156864
v 0.090214 0.011149 -0.156864
v 0.119156 0.044018 -0.143584
v 0.090214 0.044018 -0.143584
v 0.119156 0.076650 -0.157435
v 0.090214 0.076650 -0.157435
v 0.090214 0.089930 0.181101
v 0.119155 0.089930 0.181101
v 0.119155 0.076079 0.148469
v 0.090214 0.076079 0.148469
v 0.119156 0.043210 0.135189
v 0.090214 0.043210 0.135189
v 0.119155 0.010578 0.149041
v 0.090214 0.010578 0.149041
v 0.119156 -0.002702 0.181910
v 0.090214 -0.002702 0.181910
v 0.119156 0.011149 0.214542
v 0.090214 0.011149 0.214542
v 0.119156 0.044018 0.227822
v 0.090214 0.044018 0.227822
v 0.119156 0.076650 0.213970
v 0.090214 0.076650 0.213970
vn 0.0338 0.9994 -0.0013
vn 0.9800 -0.1990 -0.0004
vn 0.9815 -0.1913 -0.0013
vn 0.9810 -0.1941 -0.0010
vn -0.0000 0.1646 0.9864
vn 0.9998 0.0179 -0.0000
vn 0.0077 0.9837 -0.1799
vn -0.0000 0.9828 -0.1849
vn 0.0009 0.9829 -0.1843
vn 0.9950 0.0295 0.0955
vn 0.9978 0.0656 -0.0019
vn 0.0087 0.9838 -0.1793
vn 0.9957 0.0610 -0.0692
vn 0.9990 0.0127 0.0438
vn 0.9955 -0.0854 0.0404
vn 0.9957 -0.0833 0.0398
vn 0.9959 -0.0811 0.0393
vn 0.9945 -0.0270 -0.1017
vn -0.0000 1.0000 -0.0000
vn -0.0000 0.8028 0.5963
vn 0.9113 0.4117 -0.0005
vn -0.0000 0.8262 -0.5634
vn 0.9892 0.1340 -0.0593
vn 0.9969 0.0206 -0.0764
vn 0.0471 0.2595 -0.9646
vn 0.9294 0.3689 -0.0105
vn 0.0284 0.8417 -0.5392
vn 0.0265 0.7852 0.6187
vn 0.9977 -0.0035 0.0676
vn 0.9800 0.1500 -0.1306
vn 0.9794 -0.2018 -0.0000
vn 0.9950 -0.0928 -0.0356
vn 0.9974 0.0550 -0.0467
vn 0.9980 0.0578 0.0253
vn 0.9955 -0.0857 0.0405
vn 0.9919 -0.1273 0.0006
vn 0.9921 -0.1254 -0.0001
vn 0.9923 -0.1242 -0.0006
vn 0.0709 -0.0192 -0.9973
vn 0.0752 -0.0041 -0.9972
vn 0.0698 -0.0229 -0.9973
vn 0.0224 -0.0016 0.9997
vn 0.0240 -0.0068 0.9997
vn 0.0220 -0.0000 0.9998
vn 0.9999 0.0079 -0.0065
vn 0.0214 0.9998 0.0021
vn -0.0000 1.0000 0.0008
vn 0.0015 0.9998 0.0174
vn -0.0000 -0.0000 1.0000
vn -0.0000 -0.5878 -0.8090
vn -0.0000 -0.6153 -0.7883
vn -0.0000 -0.8239 0.5667
vn -0.0000 -0.9511 0.3090
vn -0.0000 -0.0000 -1.0000
vn -0.0000 -0.5878 0.8090
vn -0.0000 -0.9511 -0.3090
vn -0.0000 -0.1856 0.9826
vn 0.9922 -0.1246 -0.0083
vn 0.9953 -0.0966 -0.0069
vn 0.9907 -0.1348 -0.0165
vn 0.9987 -0.0268 -0.0438
vn 0.9951 -0.0967 -0.0196
vn 0.9898 -0.1423 -0.0035
vn 0.9953 -0.0634 -0.0738
vn 0.9965 -0.0386 -0.0739
vn 0.9950 -0.0677 -0.0738
vn 0.9947 -0.0723 -0.0732
vn 0.9944 -0.1059 -0.0039
vn 0.9972 -0.0749 -0.0042
vn 0.9933 -0.1157 -0.0038
vn 0.9934 -0.1147 -0.0041
vn 0.9954 -0.0960 -0.0003
vn -0.0338 0.9994 -0.0013
vn -0.9800 -0.1990 -0.0004
vn -0.9810 -0.1941 -0.0010
vn -0.9815 -0.1913 -0.0013
vn -0.9998 0.0179 -0.0000
vn -0.0077 0.9837 -0.1799
vn -0.0009 0.9829 -0.1843
vn -0.9950 0.0295 0.0955
vn -0.9978 0.0656 -0.0019
vn -0.0087 0.9838 -0.1793
vn -0.9957 0.0610 -0.0692
vn -0.9990 0.0127 0.0437
vn -0.9955 -0.0855 0.0404
vn -0.9959 -0.0811 0.0393
vn -0.9957 -0.0833 0.0398
vn -0.9944 -0.0270 -0.1017
vn -0.9113 0.4117 -0.0005
vn -0.9892 0.1340 -0.0593
vn -0.9969 0.0206 -0.0764
vn -0.0471 0.2595 -0.9646
vn -0.9294 0.3689 -0.0105
vn -0.0284 0.8417 -0.5392
vn -0.0265 0.7852 0.6187
vn -0.9977 -0.0035 0.0676
vn -0.9800 0.1500 -0.1306
vn -0.9794 -0.2018 -0.0000
vn -0.9950 -0.0928 -0.0356
vn -0.9974 0.0550 -0.0467
vn -0.9980 0.0578 0.0253
vn -0.9955 -0.0857 0.0405
vn -0.9921 -0.1254 -0.0001
vn -0.9919 -0.1273 0.0006
vn -0.9923 -0.1242 -0.0006
vn -0.0709 -0.0192 -0.9973
vn -0.0752 -0.0041 -0.9972
vn -0.0764 -0.0000 -0.9971
vn -0.0224 -0.0016 0.9997
vn -0.0240 -0.0068 0.9997
vn -0.0245 -0.0083 0.9997
vn -0.9999 0.0079 -0.0065
vn -0.0214 0.9998 0.0021
vn -0.0015 0.9998 0.0174
vn -0.0016 0.9998 0.0181
vn -0.9922 -0.1246 -0.0083
vn -0.9953 -0.0966 -0.0069
vn -0.9954 -0.0960 -0.0003
vn -0.9951 -0.0967 -0.0196
vn -0.9987 -0.0268 -0.0438
vn -0.9898 -0.1423 -0.0035
vn -0.9953 -0.0634 -0.0738
vn -0.9965 -0.0386 -0.0739
vn -0.9968 -0.0289 -0.0739
vn -0.9947 -0.0723 -0.0732
vn -0.9972 -0.0749 -0.0042
vn -0.9944 -0.1059 -0.0039
vn -0.9933 -0.1157 -0.0038
vn -0.9934 -0.1147 -0.0041
vn -0.0021 -0.9922 0.1243
vn 0.0012 -0.9924 0.1232
vn 0.0013 -0.9921 0.1254
vn -0.0000 -0.9919 0.1271
vn 0.0002 -0.9925 0.1220
vn 0.0031 -0.9921 0.1254
vn 0.0061 -0.9760 -0.2175
vn -0.0075 -0.9739 -0.2269
vn -0.0179 -0.9720 -0.2341
vn -0.0000 -0.9694 -0.2456
vn -0.0000 -1.0000 -0.0000
vn 0.2216 -0.0000 0.9751
vn -0.2216 -0.0000 -0.9751
vn -1.0000 -0.0000 -0.0000
vn -0.2216 -0.0000 0.9751
vn 0.2216 -0.0000 -0.9751
vn 1.0000 -0.0000 -0.0000
vn -0.0000 -0.9918 0.1280
vn -0.0000 -1.0000 -0.0070
vn -0.0000 -1.0000 -0.0066
vn -0.0000 -1.0000 -0.0057
vn -0.0000 0.9205 -0.3907
vn -0.0000 0.3746 -0.9272
vn -0.0000 -0.3907 -0.9205
vn -0.0000 -0.9272 -0.3746
vn -0.0000 -0.9205 0.3907
vn -0.0000 -0.3746 0.9272
vn -0.0000 0.3907 0.9205
vn -0.0000 0.9272 0.3746
vn 0.9917 -0.1289 0.0012
vn 0.0764 -0.0000 -0.9971
vn 0.0245 -0.0083 0.9997
vn 0.0016 0.9998 0.0181
vn 0.9983 0.0107 -0.0567
vn 0.9968 -0.0289 -0.0739
vn 0.9994 -0.0346 -0.0047
vn -0.9917 -0.1289 0.0012
vn -0.0698 -0.0229 -0.9973
vn -0.0220 -0.0000 0.9998
vn -0.9907 -0.1348 -0.0165
vn -0.9983 0.0107 -0.0567
vn -0.9950 -0.0677 -0.0737
vn -0.9994 -0.0346 -0.0047
vn -0.0000 -0.9921 0.1255
vn 0.0161 -0.9774 -0.2106
vt 0.431746 0.599081
vt 0.744124 0.599079
vt 0.744123 0.441142
vt 0.431745 0.441144
vt 0.701588 0.099390
vt 0.701588 0.043170
vt 0.270203 0.046210
vt 0.742596 0.648377
vt 0.740753 0.758332
vt 0.944334 0.758330
vt 0.270203 0.099393
vt 0.286107 0.232946
vt 0.279118 0.599082
vt 0.279116 0.378200
vt 0.019769 0.404063
vt 0.818898 0.139343
vt 0.862976 0.249296
vt 0.991832 0.139341
vt 0.729949 0.138425
vt 0.011377 0.599084
vt 0.944333 0.648376
vt 0.150066 0.138429
vt 0.026760 0.184157
vt 0.241843 0.138428
vt 0.993123 0.362609
vt 0.841677 0.321815
vt 0.810377 0.362180
vt 0.133430 0.126987
vt 0.855984 0.378196
vt 0.855986 0.599078
vt 0.966498 0.599077
vt 0.438737 0.331988
vt 0.751115 0.332385
vt 0.775837 0.153334
vt 0.011378 0.126987
vt 0.206399 0.106064
vt 0.206398 0.048894
vt 0.011378 0.048895
vt 0.966497 0.395496
vt 0.973488 0.249296
vt 0.195955 0.153339
vt 0.011378 0.106065
vt 0.841595 0.284695
vt 0.045953 0.271761
vt 0.177236 0.322135
vt 0.162030 0.242254
vt 0.651046 0.358418
vt 0.445216 0.408537
vt 0.650362 0.408536
vt 0.743550 0.100860
vt 0.955846 0.043392
vt 0.743550 0.043170
vt 0.992633 0.305143
vt 0.210000 0.635000
vt 0.100000 0.650000
vt 0.100000 0.620000
vt 0.210000 0.650000
vt 0.100000 0.635000
vt 0.210000 0.620000
vt 0.429535 0.968550
vt 0.416190 0.951593
vt 0.414888 0.968550
vt 0.431512 0.954115
vt 0.416993 0.965889
vt 0.431640 0.965889
vt 0.430475 0.953108
vt 0.416591 0.965159
vt 0.431238 0.965159
vt 0.427202 0.974928
vt 0.429323 0.946006
vt 0.426627 0.945516
vt 0.429802 0.961974
vt 0.415279 0.948133
vt 0.415155 0.961974
vt 0.425994 0.975851
vt 0.425420 0.946439
vt 0.420163 0.967283
vt 0.434810 0.967283
vt 0.428276 0.970746
vt 0.413629 0.970747
vt 0.419279 0.975379
vt 0.418705 0.945967
vt 0.415203 0.974962
vt 0.429850 0.974962
vt 0.414424 0.968637
vt 0.429071 0.968637
vt 0.436103 0.972205
vt 0.421456 0.948105
vt 0.421456 0.972205
vt 0.435107 0.949370
vt 0.413611 0.965648
vt 0.436082 0.966214
vt 0.413367 0.952164
vt 0.436161 0.967942
vt 0.436161 0.951901
vt 0.420559 0.970514
vt 0.434334 0.970514
vt 0.415633 0.976265
vt 0.433156 0.958323
vt 0.419879 0.961148
vt 0.438061 0.969030
vt 0.415922 0.974205
vt 0.445216 0.358419
vt 0.956358 0.100858
vt 0.430837 0.951593
vt 0.429897 0.975419
vt 0.429926 0.948133
vt 0.436103 0.948104
vt 0.412968 0.954545
vt 0.427447 0.975011
vt 0.474354 0.726178
vt 0.496412 0.764951
vt 0.521995 0.725010
vt 0.547578 0.764951
vt 0.569425 0.764951
vt 0.569637 0.726179
vt 0.521994 0.983922
vt 0.497806 0.950683
vt 0.477571 0.980518
vt 0.546181 0.950684
vt 0.566416 0.980518
vt 0.565488 0.950684
vt 0.478500 0.950683
vt 0.061878 0.681928
vt 0.025671 0.645721
vt 0.061878 0.645721
vt 0.025671 0.681928
vt 0.575000 0.625000
vt 0.475000 0.700000
vt 0.475000 0.625000
vt 0.497701 0.802643
vt 0.546288 0.802643
vt 0.476694 0.802642
vt 0.497700 0.912137
vt 0.546288 0.912137
vt 0.567295 0.912137
vt 0.567296 0.802643
vt 0.330001 0.942571
vt 0.380001 0.905141
vt 0.330001 0.905141
vt 0.330002 0.980000
vt 0.380001 0.942570
vt 0.330000 0.942570
vt 0.380000 0.980000
vt 0.330000 0.980000
vt 0.380000 0.942571
vt 0.330001 0.867711
vt 0.330002 0.830281
vt 0.380001 0.867712
vt 0.330000 0.867711
vt 0.380000 0.830281
vt 0.330000 0.830282
vt 0.380000 0.867711
vt 0.309437 0.830000
vt 0.159718 0.680281
vt 0.159718 0.979719
vt 0.053852 0.724133
vt 0.010000 0.830000
vt 0.053852 0.935867
vt 0.265585 0.935867
vt 0.265585 0.724133
vt 0.045256 0.321879
vt 0.416865 0.954115
vt 0.415828 0.953108
vt 0.426056 0.955455
vt 0.474566 0.764951
vt 0.575000 0.700000
vt 0.476693 0.912137
vt 0.380002 0.980000
vt 0.380002 0.830282
s 1
usemtl car2_mat
f 1/1/1 2/2/1 3/3/1
f 3/3/1 4/4/1 1/1/1
f 5/5/2 6/6/3 7/7/4
f 8/8/5 9/9/5 10/10/5
f 11/11/6 12/12/6 5/5/6
f 13/13/7 12/14/8 14/15/9
f 15/16/10 16/17/10 8/18/10
f 17/19/11 12/12/11 16/17/11
f 14/15/9 18/20/12 13/13/7
f 10/10/5 19/21/5 8/8/5
f 20/22/13 14/23/13 12/12/13
f 11/11/14 21/24/14 12/12/14
f 22/25/15 23/26/16 15/27/17
f 20/22/18 24/28/18 14/23/18
f 16/29/19 25/30/19 10/31/19
f 25/30/20 16/29/20 3/3/20
f 4/32/21 3/33/21 16/17/21
f 12/14/22 13/13/22 1/1/22
f 17/19/23 16/17/23 26/34/23
f 24/28/24 27/35/24 14/23/24
f 14/36/25 27/37/25 28/38/25
f 16/17/26 12/12/26 4/32/26
f 1/1/27 4/4/27 12/14/27
f 3/3/28 2/2/28 25/30/28
f 10/31/19 9/39/19 16/29/19
f 16/17/29 9/40/29 8/18/29
f 29/41/30 20/22/30 12/12/30
f 28/38/25 18/42/25 14/36/25
f 5/5/2 7/7/4 11/11/31
f 17/19/32 5/5/32 12/12/32
f 21/24/33 29/41/33 12/12/33
f 16/17/34 15/16/34 26/34/34
f 22/25/15 30/43/35 23/26/16
f 32/44/36 24/45/37 31/46/38
f 32/47/39 35/48/40 33/49/41
f 36/50/42 22/51/43 38/52/44
f 30/43/45 22/25/45 37/53/45
f 15/54/46 8/55/46 22/56/46
f 38/56/47 8/57/48 19/55/19
f 27/57/19 24/58/19 33/59/19
f 35/55/19 27/59/19 33/57/19
f 39/60/49 6/61/49 5/62/49
f 42/63/50 11/64/50 41/65/50
f 44/66/51 23/67/51 43/68/51
f 45/69/52 24/70/52 20/71/52
f 47/72/53 17/73/53 26/74/53
f 49/75/53 20/71/53 29/76/53
f 41/65/54 7/77/54 50/78/54
f 48/79/55 5/62/55 17/80/55
f 42/81/56 29/76/56 21/82/56
f 47/72/56 15/83/56 44/84/56
f 43/68/54 30/85/54 51/86/54
f 46/87/57 31/88/57 24/89/57
f 39/90/58 51/91/59 40/92/60
f 52/93/61 41/94/62 50/95/63
f 45/96/64 42/97/65 46/98/66
f 46/98/67 42/97/67 41/94/67
f 48/99/68 44/100/69 39/101/70
f 44/100/71 43/102/72 39/101/58
f 1/1/73 53/3/73 2/2/73
f 53/3/73 1/1/73 54/4/73
f 55/5/74 56/7/75 57/6/76
f 58/8/5 10/10/5 59/9/5
f 60/11/77 55/5/77 61/12/77
f 13/13/78 62/15/79 61/14/8
f 63/16/80 58/18/80 64/17/80
f 65/19/81 64/17/81 61/12/81
f 62/15/79 13/13/78 18/20/82
f 10/10/5 58/8/5 19/21/5
f 66/22/83 61/12/83 62/23/83
f 60/11/84 61/12/84 67/24/84
f 68/25/85 63/27/86 69/26/87
f 66/22/88 62/23/88 70/28/88
f 64/29/19 10/31/19 25/30/19
f 25/30/20 53/3/20 64/29/20
f 54/32/89 64/17/89 53/33/89
f 61/14/22 1/1/22 13/13/22
f 65/19/90 71/34/90 64/17/90
f 70/28/91 62/23/91 72/35/91
f 62/36/92 28/38/92 72/37/92
f 64/17/93 54/32/93 61/12/93
f 1/1/94 61/14/94 54/4/94
f 53/3/95 25/30/95 2/2/95
f 10/31/19 64/29/19 59/39/19
f 64/17/96 58/18/96 59/40/96
f 73/41/97 61/12/97 66/22/97
f 28/38/92 62/36/92 18/42/92
f 55/5/74 60/11/98 56/7/75
f 65/19/99 61/12/99 55/5/99
f 67/24/100 61/12/100 73/41/100
f 64/17/101 71/34/101 63/16/101
f 68/25/85 69/26/87 74/43/102
f 70/45/103 77/44/104 75/46/105
f 77/47/106 35/48/107 34/103/108
f 36/50/109 68/51/110 78/104/111
f 74/43/112 78/53/112 68/25/112
f 63/54/113 68/56/113 58/55/113
f 38/56/47 58/57/114 68/59/115
f 72/57/19 76/59/19 70/58/19
f 72/59/19 35/55/19 76/57/19
f 79/60/49 57/61/49 80/105/49
f 60/64/50 82/63/50 81/65/50
f 69/67/51 84/66/51 83/68/51
f 85/69/52 70/70/52 86/106/52
f 87/72/53 65/73/53 88/107/53
f 89/75/53 66/71/53 85/69/53
f 56/77/54 81/65/54 90/78/54
f 88/79/55 55/62/55 79/60/55
f 82/81/56 73/76/56 89/75/56
f 63/83/56 87/72/56 84/84/56
f 74/85/54 83/68/54 91/86/54
f 86/87/57 75/88/57 92/108/57
f 79/90/116 91/91/117 83/109/118
f 81/94/119 92/93/120 90/95/121
f 85/96/122 82/97/123 89/110/124
f 86/98/125 81/94/125 82/97/125
f 84/100/126 88/99/127 79/101/128
f 84/100/129 79/101/116 83/102/118
f 78/111/130 91/112/131 36/113/132
f 51/114/133 36/113/132 91/112/131
f 36/113/132 30/115/134 37/116/135
f 34/117/136 92/118/137 77/119/138
f 52/120/139 32/121/139 31/122/139
f 77/119/139 92/118/139 75/123/139
f 94/124/140 96/125/140 93/126/140
f 98/126/19 100/127/19 97/125/19
f 96/128/141 97/129/141 93/130/141
f 94/126/142 99/127/142 95/125/142
f 93/126/143 100/127/143 94/125/143
f 102/125/140 104/124/140 101/126/140
f 106/127/19 108/126/19 105/125/19
f 105/129/144 102/128/144 101/130/144
f 107/127/145 104/126/145 103/125/145
f 106/127/146 101/126/146 104/125/146
f 51/114/133 80/131/147 40/132/147
f 57/133/148 90/134/149 80/131/148
f 92/118/150 50/135/149 90/134/149
f 80/131/148 50/135/149 40/132/148
f 40/132/148 7/136/148 6/137/148
f 110/138/151 112/139/151 109/140/151
f 113/141/152 111/142/152 110/138/152
f 115/143/153 114/144/153 113/145/153
f 117/140/154 116/146/154 115/143/154
f 119/147/155 118/139/155 117/140/155
f 121/148/156 120/149/156 119/147/156
f 123/150/157 122/151/157 121/152/157
f 123/150/158 112/139/158 124/153/158
f 121/154/146 117/155/146 109/156/146
f 115/157/146 109/156/146 117/155/146
f 113/158/146 110/159/146 109/156/146
f 123/160/146 121/154/146 109/156/146
f 111/159/143 116/157/143 124/160/143
f 118/155/143 124/160/143 116/157/143
f 120/161/143 122/154/143 124/160/143
f 112/156/143 111/159/143 124/160/143
f 126/138/151 128/139/151 125/140/151
f 129/141/152 127/142/152 126/138/152
f 131/143/153 130/144/153 129/145/153
f 133/140/154 132/146/154 131/143/154
f 135/147/155 134/139/155 133/140/155
f 137/148/156 136/149/156 135/147/156
f 139/150/157 138/151/157 137/152/157
f 139/150/158 128/139/158 140/153/158
f 137/154/146 133/155/146 125/156/146
f 133/155/146 129/158/146 125/156/146
f 129/158/146 126/159/146 125/156/146
f 139/160/146 137/154/146 125/156/146
f 127/159/143 132/157/143 140/160/143
f 134/155/143 140/160/143 132/157/143
f 136/161/143 138/154/143 140/160/143
f 128/156/143 127/159/143 140/160/143
f 142/139/151 144/138/151 141/140/151
f 143/142/152 146/141/152 144/138/152
f 145/144/153 148/143/153 146/145/153
f 147/146/154 150/140/154 148/143/154
f 149/139/155 152/147/155 150/140/155
f 151/149/156 154/148/156 152/147/156
f 154/152/157 155/153/157 156/150/157
f 156/150/158 142/139/158 141/140/158
f 141/156/143 146/158/143 150/155/143
f 146/158/143 148/157/143 150/155/143
f 150/155/143 154/154/143 141/156/143
f 156/160/143 141/156/143 154/154/143
f 155/160/146 151/161/146 147/157/146
f 151/161/146 149/155/146 147/157/146
f 147/157/146 143/159/146 155/160/146
f 142/156/146 155/160/146 143/159/146
f 158/139/151 160/138/151 157/140/151
f 159/142/152 162/141/152 160/138/152
f 162/145/153 163/146/153 164/143/153
f 163/146/154 166/140/154 164/143/154
f 165/139/155 168/147/155 166/140/155
f 167/149/156 170/148/156 168/147/156
f 170/152/157 171/153/157 172/150/157
f 172/150/158 158/139/158 157/140/158
f 160/159/143 166/155/143 157/156/143
f 162/158/143 164/157/143 166/155/143
f 166/155/143 170/154/143 157/156/143
f 172/160/143 157/156/143 170/154/143
f 169/154/146 163/157/146 171/160/146
f 167/161/146 165/155/146 163/157/146
f 163/157/146 159/159/146 171/160/146
f 158/156/146 171/160/146 159/159/146
f 32/44/36 33/162/159 24/45/37
f 32/47/39 34/103/160 35/48/40
f 36/50/42 37/104/161 22/51/43
f 38/56/47 22/59/162 8/57/48
f 35/55/19 28/56/19 27/59/19
f 39/60/49 40/105/49 6/61/49
f 42/63/50 21/163/50 11/64/50
f 44/66/51 15/164/51 23/67/51
f 45/69/52 46/106/52 24/70/52
f 47/72/53 48/107/53 17/73/53
f 49/75/53 45/69/53 20/71/53
f 41/65/54 11/64/54 7/77/54
f 48/79/55 39/60/55 5/62/55
f 42/81/56 49/75/56 29/76/56
f 47/72/56 26/74/56 15/83/56
f 43/68/54 23/67/54 30/85/54
f 46/87/57 52/108/57 31/88/57
f 39/90/58 43/109/72 51/91/59
f 52/93/61 46/98/163 41/94/62
f 45/96/64 49/110/164 42/97/65
f 48/99/68 47/165/165 44/100/69
f 70/45/103 76/162/166 77/44/104
f 77/47/106 76/49/167 35/48/107
f 36/50/109 38/52/168 68/51/110
f 38/56/47 19/55/19 58/57/114
f 72/59/19 28/56/19 35/55/19
f 79/60/49 55/62/49 57/61/49
f 60/64/50 67/163/50 82/63/50
f 69/67/51 63/164/51 84/66/51
f 85/69/52 66/71/52 70/70/52
f 87/72/53 71/74/53 65/73/53
f 89/75/53 73/76/53 66/71/53
f 56/77/54 60/64/54 81/65/54
f 88/79/55 65/80/55 55/62/55
f 82/81/56 67/82/56 73/76/56
f 63/83/56 71/74/56 87/72/56
f 74/85/54 69/67/54 83/68/54
f 86/87/57 70/89/57 75/88/57
f 79/90/116 80/92/169 91/91/117
f 81/94/119 86/98/170 92/93/120
f 85/96/122 86/98/171 82/97/123
f 84/100/126 87/165/172 88/99/127
f 78/111/130 74/166/173 91/112/131
f 51/114/133 30/115/134 36/113/132
f 34/117/136 32/121/174 92/118/137
f 52/120/139 92/118/139 32/121/139
f 94/124/140 95/127/140 96/125/140
f 98/126/19 99/124/19 100/127/19
f 96/128/141 98/167/141 97/129/141
f 94/126/142 100/124/142 99/127/142
f 93/126/143 97/124/143 100/127/143
f 102/125/140 103/127/140 104/124/140
f 106/127/19 107/124/19 108/126/19
f 105/129/144 108/167/144 102/128/144
f 107/127/145 106/124/145 104/126/145
f 106/127/146 105/124/146 101/126/146
f 51/114/133 91/112/131 80/131/147
f 57/133/148 56/168/148 90/134/149
f 92/118/150 52/120/150 50/135/149
f 80/131/148 90/134/149 50/135/149
f 40/132/148 50/135/149 7/136/148
f 110/138/151 111/142/151 112/139/151
f 113/141/152 114/169/152 111/142/152
f 115/143/153 116/146/153 114/144/153
f 117/140/154 118/139/154 116/146/154
f 119/147/155 120/149/155 118/139/155
f 121/148/156 122/170/156 120/149/156
f 123/150/157 124/153/157 122/151/157
f 123/150/158 109/140/158 112/139/158
f 121/154/146 119/161/146 117/155/146
f 115/157/146 113/158/146 109/156/146
f 111/159/143 114/158/143 116/157/143
f 118/155/143 120/161/143 124/160/143
f 126/138/151 127/142/151 128/139/151
f 129/141/152 130/169/152 127/142/152
f 131/143/153 132/146/153 130/144/153
f 133/140/154 134/139/154 132/146/154
f 135/147/155 136/149/155 134/139/155
f 137/148/156 138/170/156 136/149/156
f 139/150/157 140/153/157 138/151/157
f 139/150/158 125/140/158 128/139/158
f 137/154/146 135/161/146 133/155/146
f 133/155/146 131/157/146 129/158/146
f 127/159/143 130/158/143 132/157/143
f 134/155/143 136/161/143 140/160/143
f 142/139/151 143/142/151 144/138/151
f 143/142/152 145/169/152 146/141/152
f 145/144/153 147/146/153 148/143/153
f 147/146/154 149/139/154 150/140/154
f 149/139/155 151/149/155 152/147/155
f 151/149/156 153/170/156 154/148/156
f 154/152/157 153/151/157 155/153/157
f 156/150/158 155/153/158 142/139/158
f 141/156/143 144/159/143 146/158/143
f 150/155/143 152/161/143 154/154/143
f 155/160/146 153/154/146 151/161/146
f 147/157/146 145/158/146 143/159/146
f 158/139/151 159/142/151 160/138/151
f 159/142/152 161/169/152 162/141/152
f 162/145/153 161/144/153 163/146/153
f 163/146/154 165/139/154 166/140/154
f 165/139/155 167/149/155 168/147/155
f 167/149/156 169/170/156 170/148/156
f 170/152/157 169/151/157 171/153/157
f 172/150/158 171/153/158 158/139/158
f 160/159/143 162/158/143 166/155/143
f 166/155/143 168/161/143 170/154/143
f 169/154/146 167/161/146 163/157/146
f 163/157/146 161/158/146 159/159/146
