# Blender 4.0.2
# www.blender.org
mtllib plane_16x16.mtl
o Plane
v 1.000000 0.000000 0.000000
v 0.000000 0.000000 0.000000
v 1.000000 0.000000 1.000000
v 0.000000 0.000000 1.000000
v 1.000000 0.000000 0.937500
v 1.000000 0.000000 0.875000
v 1.000000 0.000000 0.812500
v 1.000000 0.000000 0.750000
v 1.000000 0.000000 0.687500
v 1.000000 0.000000 0.625000
v 1.000000 0.000000 0.562500
v 1.000000 0.000000 0.500000
v 1.000000 0.000000 0.437500
v 1.000000 0.000000 0.375000
v 1.000000 0.000000 0.312500
v 1.000000 0.000000 0.250000
v 1.000000 0.000000 0.187500
v 1.000000 0.000000 0.125000
v 1.000000 0.000000 0.062500
v 0.937500 0.000000 0.000000
v 0.875000 0.000000 0.000000
v 0.812500 0.000000 0.000000
v 0.750000 0.000000 0.000000
v 0.687500 0.000000 0.000000
v 0.625000 0.000000 0.000000
v 0.562500 0.000000 0.000000
v 0.500000 0.000000 0.000000
v 0.437500 0.000000 0.000000
v 0.375000 0.000000 0.000000
v 0.312500 0.000000 0.000000
v 0.250000 0.000000 0.000000
v 0.187500 0.000000 0.000000
v 0.125000 0.000000 0.000000
v 0.062500 0.000000 0.000000
v 0.000000 0.000000 0.062500
v 0.000000 0.000000 0.125000
v 0.000000 0.000000 0.187500
v 0.000000 0.000000 0.250000
v 0.000000 0.000000 0.312500
v 0.000000 0.000000 0.375000
v 0.000000 0.000000 0.437500
v 0.000000 0.000000 0.500000
v 0.000000 0.000000 0.562500
v 0.000000 0.000000 0.625000
v 0.000000 0.000000 0.687500
v 0.000000 0.000000 0.750000
v 0.000000 0.000000 0.812500
v 0.000000 0.000000 0.875000
v 0.000000 0.000000 0.937500
v 0.062500 0.000000 1.000000
v 0.125000 0.000000 1.000000
v 0.187500 0.000000 1.000000
v 0.250000 0.000000 1.000000
v 0.312500 0.000000 1.000000
v 0.375000 0.000000 1.000000
v 0.437500 0.000000 1.000000
v 0.500000 0.000000 1.000000
v 0.562500 0.000000 1.000000
v 0.625000 0.000000 1.000000
v 0.687500 0.000000 1.000000
v 0.750000 0.000000 1.000000
v 0.812500 0.000000 1.000000
v 0.875000 0.000000 1.000000
v 0.937500 0.000000 1.000000
v 0.937500 0.000000 0.062500
v 0.937500 0.000000 0.125000
v 0.937500 0.000000 0.187500
v 0.937500 0.000000 0.250000
v 0.937500 0.000000 0.312500
v 0.937500 0.000000 0.375000
v 0.937500 0.000000 0.437500
v 0.937500 0.000000 0.500000
v 0.937500 0.000000 0.562500
v 0.937500 0.000000 0.625000
v 0.937500 0.000000 0.687500
v 0.937500 0.000000 0.750000
v 0.937500 0.000000 0.812500
v 0.937500 0.000000 0.875000
v 0.937500 0.000000 0.937500
v 0.875000 0.000000 0.062500
v 0.875000 0.000000 0.125000
v 0.875000 0.000000 0.187500
v 0.875000 0.000000 0.250000
v 0.875000 0.000000 0.312500
v 0.875000 0.000000 0.375000
v 0.875000 0.000000 0.437500
v 0.875000 0.000000 0.500000
v 0.875000 0.000000 0.562500
v 0.875000 0.000000 0.625000
v 0.875000 0.000000 0.687500
v 0.875000 0.000000 0.750000
v 0.875000 0.000000 0.812500
v 0.875000 0.000000 0.875000
v 0.875000 0.000000 0.937500
v 0.812500 0.000000 0.062500
v 0.812500 0.000000 0.125000
v 0.812500 0.000000 0.187500
v 0.812500 0.000000 0.250000
v 0.812500 0.000000 0.312500
v 0.812500 0.000000 0.375000
v 0.812500 0.000000 0.437500
v 0.812500 0.000000 0.500000
v 0.812500 0.000000 0.562500
v 0.812500 0.000000 0.625000
v 0.812500 0.000000 0.687500
v 0.812500 0.000000 0.750000
v 0.812500 0.000000 0.812500
v 0.812500 0.000000 0.875000
v 0.812500 0.000000 0.937500
v 0.750000 0.000000 0.062500
v 0.750000 0.000000 0.125000
v 0.750000 0.000000 0.187500
v 0.750000 0.000000 0.250000
v 0.750000 0.000000 0.312500
v 0.750000 0.000000 0.375000
v 0.750000 0.000000 0.437500
v 0.750000 0.000000 0.500000
v 0.750000 0.000000 0.562500
v 0.750000 0.000000 0.625000
v 0.750000 0.000000 0.687500
v 0.750000 0.000000 0.750000
v 0.750000 0.000000 0.812500
v 0.750000 0.000000 0.875000
v 0.750000 0.000000 0.937500
v 0.687500 0.000000 0.062500
v 0.687500 0.000000 0.125000
v 0.687500 0.000000 0.187500
v 0.687500 0.000000 0.250000
v 0.687500 0.000000 0.312500
v 0.687500 0.000000 0.375000
v 0.687500 0.000000 0.437500
v 0.687500 0.000000 0.500000
v 0.687500 0.000000 0.562500
v 0.687500 0.000000 0.625000
v 0.687500 0.000000 0.687500
v 0.687500 0.000000 0.750000
v 0.687500 0.000000 0.812500
v 0.687500 0.000000 0.875000
v 0.687500 0.000000 0.937500
v 0.625000 0.000000 0.062500
v 0.625000 0.000000 0.125000
v 0.625000 0.000000 0.187500
v 0.625000 0.000000 0.250000
v 0.625000 0.000000 0.312500
v 0.625000 0.000000 0.375000
v 0.625000 0.000000 0.437500
v 0.625000 0.000000 0.500000
v 0.625000 0.000000 0.562500
v 0.625000 0.000000 0.625000
v 0.625000 0.000000 0.687500
v 0.625000 0.000000 0.750000
v 0.625000 0.000000 0.812500
v 0.625000 0.000000 0.875000
v 0.625000 0.000000 0.937500
v 0.562500 0.000000 0.062500
v 0.562500 0.000000 0.125000
v 0.562500 0.000000 0.187500
v 0.562500 0.000000 0.250000
v 0.562500 0.000000 0.312500
v 0.562500 0.000000 0.375000
v 0.562500 0.000000 0.437500
v 0.562500 0.000000 0.500000
v 0.562500 0.000000 0.562500
v 0.562500 0.000000 0.625000
v 0.562500 0.000000 0.687500
v 0.562500 0.000000 0.750000
v 0.562500 0.000000 0.812500
v 0.562500 0.000000 0.875000
v 0.562500 0.000000 0.937500
v 0.500000 0.000000 0.062500
v 0.500000 0.000000 0.125000
v 0.500000 0.000000 0.187500
v 0.500000 0.000000 0.250000
v 0.500000 0.000000 0.312500
v 0.500000 0.000000 0.375000
v 0.500000 0.000000 0.437500
v 0.500000 0.000000 0.500000
v 0.500000 0.000000 0.562500
v 0.500000 0.000000 0.625000
v 0.500000 0.000000 0.687500
v 0.500000 0.000000 0.750000
v 0.500000 0.000000 0.812500
v 0.500000 0.000000 0.875000
v 0.500000 0.000000 0.937500
v 0.437500 0.000000 0.062500
v 0.437500 0.000000 0.125000
v 0.437500 0.000000 0.187500
v 0.437500 0.000000 0.250000
v 0.437500 0.000000 0.312500
v 0.437500 0.000000 0.375000
v 0.437500 0.000000 0.437500
v 0.437500 0.000000 0.500000
v 0.437500 0.000000 0.562500
v 0.437500 0.000000 0.625000
v 0.437500 0.000000 0.687500
v 0.437500 0.000000 0.750000
v 0.437500 0.000000 0.812500
v 0.437500 0.000000 0.875000
v 0.437500 0.000000 0.937500
v 0.375000 0.000000 0.062500
v 0.375000 0.000000 0.125000
v 0.375000 0.000000 0.187500
v 0.375000 0.000000 0.250000
v 0.375000 0.000000 0.312500
v 0.375000 0.000000 0.375000
v 0.375000 0.000000 0.437500
v 0.375000 0.000000 0.500000
v 0.375000 0.000000 0.562500
v 0.375000 0.000000 0.625000
v 0.375000 0.000000 0.687500
v 0.375000 0.000000 0.750000
v 0.375000 0.000000 0.812500
v 0.375000 0.000000 0.875000
v 0.375000 0.000000 0.937500
v 0.312500 0.000000 0.062500
v 0.312500 0.000000 0.125000
v 0.312500 0.000000 0.187500
v 0.312500 0.000000 0.250000
v 0.312500 0.000000 0.312500
v 0.312500 0.000000 0.375000
v 0.312500 0.000000 0.437500
v 0.312500 0.000000 0.500000
v 0.312500 0.000000 0.562500
v 0.312500 0.000000 0.625000
v 0.312500 0.000000 0.687500
v 0.312500 0.000000 0.750000
v 0.312500 0.000000 0.812500
v 0.312500 0.000000 0.875000
v 0.312500 0.000000 0.937500
v 0.250000 0.000000 0.062500
v 0.250000 0.000000 0.125000
v 0.250000 0.000000 0.187500
v 0.250000 0.000000 0.250000
v 0.250000 0.000000 0.312500
v 0.250000 0.000000 0.375000
v 0.250000 0.000000 0.437500
v 0.250000 0.000000 0.500000
v 0.250000 0.000000 0.562500
v 0.250000 0.000000 0.625000
v 0.250000 0.000000 0.687500
v 0.250000 0.000000 0.750000
v 0.250000 0.000000 0.812500
v 0.250000 0.000000 0.875000
v 0.250000 0.000000 0.937500
v 0.187500 0.000000 0.062500
v 0.187500 0.000000 0.125000
v 0.187500 0.000000 0.187500
v 0.187500 0.000000 0.250000
v 0.187500 0.000000 0.312500
v 0.187500 0.000000 0.375000
v 0.187500 0.000000 0.437500
v 0.187500 0.000000 0.500000
v 0.187500 0.000000 0.562500
v 0.187500 0.000000 0.625000
v 0.187500 0.000000 0.687500
v 0.187500 0.000000 0.750000
v 0.187500 0.000000 0.812500
v 0.187500 0.000000 0.875000
v 0.187500 0.000000 0.937500
v 0.125000 0.000000 0.062500
v 0.125000 0.000000 0.125000
v 0.125000 0.000000 0.187500
v 0.125000 0.000000 0.250000
v 0.125000 0.000000 0.312500
v 0.125000 0.000000 0.375000
v 0.125000 0.000000 0.437500
v 0.125000 0.000000 0.500000
v 0.125000 0.000000 0.562500
v 0.125000 0.000000 0.625000
v 0.125000 0.000000 0.687500
v 0.125000 0.000000 0.750000
v 0.125000 0.000000 0.812500
v 0.125000 0.000000 0.875000
v 0.125000 0.000000 0.937500
v 0.062500 0.000000 0.062500
v 0.062500 0.000000 0.125000
v 0.062500 0.000000 0.187500
v 0.062500 0.000000 0.250000
v 0.062500 0.000000 0.312500
v 0.062500 0.000000 0.375000
v 0.062500 0.000000 0.437500
v 0.062500 0.000000 0.500000
v 0.062500 0.000000 0.562500
v 0.062500 0.000000 0.625000
v 0.062500 0.000000 0.687500
v 0.062500 0.000000 0.750000
v 0.062500 0.000000 0.812500
v 0.062500 0.000000 0.875000
v 0.062500 0.000000 0.937500
vn -0.0000 1.0000 -0.0000
s 0
f 49//1 50//1 289//1
f 79//1 3//1 5//1
f 94//1 64//1 79//1
f 109//1 63//1 94//1
f 124//1 62//1 109//1
f 139//1 61//1 124//1
f 154//1 60//1 139//1
f 169//1 59//1 154//1
f 184//1 58//1 169//1
f 199//1 57//1 184//1
f 214//1 56//1 199//1
f 229//1 55//1 214//1
f 244//1 54//1 229//1
f 259//1 53//1 244//1
f 274//1 52//1 259//1
f 289//1 51//1 274//1
f 20//1 19//1 1//1
f 65//1 18//1 19//1
f 66//1 17//1 18//1
f 67//1 16//1 17//1
f 68//1 15//1 16//1
f 69//1 14//1 15//1
f 70//1 13//1 14//1
f 71//1 12//1 13//1
f 72//1 11//1 12//1
f 73//1 10//1 11//1
f 74//1 9//1 10//1
f 75//1 8//1 9//1
f 76//1 7//1 8//1
f 77//1 6//1 7//1
f 78//1 5//1 6//1
f 21//1 65//1 20//1
f 80//1 66//1 65//1
f 81//1 67//1 66//1
f 82//1 68//1 67//1
f 83//1 69//1 68//1
f 84//1 70//1 69//1
f 85//1 71//1 70//1
f 86//1 72//1 71//1
f 87//1 73//1 72//1
f 88//1 74//1 73//1
f 89//1 75//1 74//1
f 90//1 76//1 75//1
f 91//1 77//1 76//1
f 92//1 78//1 77//1
f 93//1 79//1 78//1
f 22//1 80//1 21//1
f 95//1 81//1 80//1
f 96//1 82//1 81//1
f 97//1 83//1 82//1
f 98//1 84//1 83//1
f 99//1 85//1 84//1
f 100//1 86//1 85//1
f 101//1 87//1 86//1
f 102//1 88//1 87//1
f 103//1 89//1 88//1
f 104//1 90//1 89//1
f 105//1 91//1 90//1
f 106//1 92//1 91//1
f 107//1 93//1 92//1
f 108//1 94//1 93//1
f 23//1 95//1 22//1
f 110//1 96//1 95//1
f 111//1 97//1 96//1
f 112//1 98//1 97//1
f 113//1 99//1 98//1
f 114//1 100//1 99//1
f 115//1 101//1 100//1
f 116//1 102//1 101//1
f 117//1 103//1 102//1
f 118//1 104//1 103//1
f 119//1 105//1 104//1
f 120//1 106//1 105//1
f 121//1 107//1 106//1
f 122//1 108//1 107//1
f 123//1 109//1 108//1
f 24//1 110//1 23//1
f 125//1 111//1 110//1
f 126//1 112//1 111//1
f 127//1 113//1 112//1
f 128//1 114//1 113//1
f 129//1 115//1 114//1
f 130//1 116//1 115//1
f 131//1 117//1 116//1
f 132//1 118//1 117//1
f 133//1 119//1 118//1
f 134//1 120//1 119//1
f 135//1 121//1 120//1
f 136//1 122//1 121//1
f 137//1 123//1 122//1
f 138//1 124//1 123//1
f 25//1 125//1 24//1
f 140//1 126//1 125//1
f 141//1 127//1 126//1
f 142//1 128//1 127//1
f 143//1 129//1 128//1
f 144//1 130//1 129//1
f 145//1 131//1 130//1
f 146//1 132//1 131//1
f 147//1 133//1 132//1
f 148//1 134//1 133//1
f 149//1 135//1 134//1
f 150//1 136//1 135//1
f 151//1 137//1 136//1
f 152//1 138//1 137//1
f 153//1 139//1 138//1
f 26//1 140//1 25//1
f 155//1 141//1 140//1
f 156//1 142//1 141//1
f 157//1 143//1 142//1
f 158//1 144//1 143//1
f 159//1 145//1 144//1
f 160//1 146//1 145//1
f 161//1 147//1 146//1
f 162//1 148//1 147//1
f 163//1 149//1 148//1
f 164//1 150//1 149//1
f 165//1 151//1 150//1
f 166//1 152//1 151//1
f 167//1 153//1 152//1
f 168//1 154//1 153//1
f 27//1 155//1 26//1
f 170//1 156//1 155//1
f 171//1 157//1 156//1
f 172//1 158//1 157//1
f 173//1 159//1 158//1
f 174//1 160//1 159//1
f 175//1 161//1 160//1
f 176//1 162//1 161//1
f 177//1 163//1 162//1
f 178//1 164//1 163//1
f 179//1 165//1 164//1
f 180//1 166//1 165//1
f 181//1 167//1 166//1
f 182//1 168//1 167//1
f 183//1 169//1 168//1
f 28//1 170//1 27//1
f 185//1 171//1 170//1
f 186//1 172//1 171//1
f 187//1 173//1 172//1
f 188//1 174//1 173//1
f 189//1 175//1 174//1
f 190//1 176//1 175//1
f 191//1 177//1 176//1
f 192//1 178//1 177//1
f 193//1 179//1 178//1
f 194//1 180//1 179//1
f 195//1 181//1 180//1
f 196//1 182//1 181//1
f 197//1 183//1 182//1
f 198//1 184//1 183//1
f 29//1 185//1 28//1
f 200//1 186//1 185//1
f 201//1 187//1 186//1
f 202//1 188//1 187//1
f 203//1 189//1 188//1
f 204//1 190//1 189//1
f 205//1 191//1 190//1
f 206//1 192//1 191//1
f 207//1 193//1 192//1
f 208//1 194//1 193//1
f 209//1 195//1 194//1
f 210//1 196//1 195//1
f 211//1 197//1 196//1
f 212//1 198//1 197//1
f 213//1 199//1 198//1
f 30//1 200//1 29//1
f 215//1 201//1 200//1
f 216//1 202//1 201//1
f 217//1 203//1 202//1
f 218//1 204//1 203//1
f 219//1 205//1 204//1
f 220//1 206//1 205//1
f 221//1 207//1 206//1
f 222//1 208//1 207//1
f 223//1 209//1 208//1
f 224//1 210//1 209//1
f 225//1 211//1 210//1
f 226//1 212//1 211//1
f 227//1 213//1 212//1
f 228//1 214//1 213//1
f 31//1 215//1 30//1
f 230//1 216//1 215//1
f 231//1 217//1 216//1
f 232//1 218//1 217//1
f 233//1 219//1 218//1
f 234//1 220//1 219//1
f 235//1 221//1 220//1
f 236//1 222//1 221//1
f 237//1 223//1 222//1
f 238//1 224//1 223//1
f 239//1 225//1 224//1
f 240//1 226//1 225//1
f 241//1 227//1 226//1
f 242//1 228//1 227//1
f 243//1 229//1 228//1
f 32//1 230//1 31//1
f 245//1 231//1 230//1
f 246//1 232//1 231//1
f 247//1 233//1 232//1
f 248//1 234//1 233//1
f 249//1 235//1 234//1
f 250//1 236//1 235//1
f 251//1 237//1 236//1
f 252//1 238//1 237//1
f 253//1 239//1 238//1
f 254//1 240//1 239//1
f 255//1 241//1 240//1
f 256//1 242//1 241//1
f 257//1 243//1 242//1
f 258//1 244//1 243//1
f 33//1 245//1 32//1
f 260//1 246//1 245//1
f 261//1 247//1 246//1
f 262//1 248//1 247//1
f 263//1 249//1 248//1
f 264//1 250//1 249//1
f 265//1 251//1 250//1
f 266//1 252//1 251//1
f 267//1 253//1 252//1
f 268//1 254//1 253//1
f 269//1 255//1 254//1
f 270//1 256//1 255//1
f 271//1 257//1 256//1
f 272//1 258//1 257//1
f 273//1 259//1 258//1
f 34//1 260//1 33//1
f 275//1 261//1 260//1
f 276//1 262//1 261//1
f 277//1 263//1 262//1
f 278//1 264//1 263//1
f 279//1 265//1 264//1
f 280//1 266//1 265//1
f 281//1 267//1 266//1
f 282//1 268//1 267//1
f 283//1 269//1 268//1
f 284//1 270//1 269//1
f 285//1 271//1 270//1
f 286//1 272//1 271//1
f 287//1 273//1 272//1
f 288//1 274//1 273//1
f 2//1 275//1 34//1
f 35//1 276//1 275//1
f 36//1 277//1 276//1
f 37//1 278//1 277//1
f 38//1 279//1 278//1
f 39//1 280//1 279//1
f 40//1 281//1 280//1
f 41//1 282//1 281//1
f 42//1 283//1 282//1
f 43//1 284//1 283//1
f 44//1 285//1 284//1
f 45//1 286//1 285//1
f 46//1 287//1 286//1
f 47//1 288//1 287//1
f 48//1 289//1 288//1
f 49//1 4//1 50//1
f 79//1 64//1 3//1
f 94//1 63//1 64//1
f 109//1 62//1 63//1
f 124//1 61//1 62//1
f 139//1 60//1 61//1
f 154//1 59//1 60//1
f 169//1 58//1 59//1
f 184//1 57//1 58//1
f 199//1 56//1 57//1
f 214//1 55//1 56//1
f 229//1 54//1 55//1
f 244//1 53//1 54//1
f 259//1 52//1 53//1
f 274//1 51//1 52//1
f 289//1 50//1 51//1
f 20//1 65//1 19//1
f 65//1 66//1 18//1
f 66//1 67//1 17//1
f 67//1 68//1 16//1
f 68//1 69//1 15//1
f 69//1 70//1 14//1
f 70//1 71//1 13//1
f 71//1 72//1 12//1
f 72//1 73//1 11//1
f 73//1 74//1 10//1
f 74//1 75//1 9//1
f 75//1 76//1 8//1
f 76//1 77//1 7//1
f 77//1 78//1 6//1
f 78//1 79//1 5//1
f 21//1 80//1 65//1
f 80//1 81//1 66//1
f 81//1 82//1 67//1
f 82//1 83//1 68//1
f 83//1 84//1 69//1
f 84//1 85//1 70//1
f 85//1 86//1 71//1
f 86//1 87//1 72//1
f 87//1 88//1 73//1
f 88//1 89//1 74//1
f 89//1 90//1 75//1
f 90//1 91//1 76//1
f 91//1 92//1 77//1
f 92//1 93//1 78//1
f 93//1 94//1 79//1
f 22//1 95//1 80//1
f 95//1 96//1 81//1
f 96//1 97//1 82//1
f 97//1 98//1 83//1
f 98//1 99//1 84//1
f 99//1 100//1 85//1
f 100//1 101//1 86//1
f 101//1 102//1 87//1
f 102//1 103//1 88//1
f 103//1 104//1 89//1
f 104//1 105//1 90//1
f 105//1 106//1 91//1
f 106//1 107//1 92//1
f 107//1 108//1 93//1
f 108//1 109//1 94//1
f 23//1 110//1 95//1
f 110//1 111//1 96//1
f 111//1 112//1 97//1
f 112//1 113//1 98//1
f 113//1 114//1 99//1
f 114//1 115//1 100//1
f 115//1 116//1 101//1
f 116//1 117//1 102//1
f 117//1 118//1 103//1
f 118//1 119//1 104//1
f 119//1 120//1 105//1
f 120//1 121//1 106//1
f 121//1 122//1 107//1
f 122//1 123//1 108//1
f 123//1 124//1 109//1
f 24//1 125//1 110//1
f 125//1 126//1 111//1
f 126//1 127//1 112//1
f 127//1 128//1 113//1
f 128//1 129//1 114//1
f 129//1 130//1 115//1
f 130//1 131//1 116//1
f 131//1 132//1 117//1
f 132//1 133//1 118//1
f 133//1 134//1 119//1
f 134//1 135//1 120//1
f 135//1 136//1 121//1
f 136//1 137//1 122//1
f 137//1 138//1 123//1
f 138//1 139//1 124//1
f 25//1 140//1 125//1
f 140//1 141//1 126//1
f 141//1 142//1 127//1
f 142//1 143//1 128//1
f 143//1 144//1 129//1
f 144//1 145//1 130//1
f 145//1 146//1 131//1
f 146//1 147//1 132//1
f 147//1 148//1 133//1
f 148//1 149//1 134//1
f 149//1 150//1 135//1
f 150//1 151//1 136//1
f 151//1 152//1 137//1
f 152//1 153//1 138//1
f 153//1 154//1 139//1
f 26//1 155//1 140//1
f 155//1 156//1 141//1
f 156//1 157//1 142//1
f 157//1 158//1 143//1
f 158//1 159//1 144//1
f 159//1 160//1 145//1
f 160//1 161//1 146//1
f 161//1 162//1 147//1
f 162//1 163//1 148//1
f 163//1 164//1 149//1
f 164//1 165//1 150//1
f 165//1 166//1 151//1
f 166//1 167//1 152//1
f 167//1 168//1 153//1
f 168//1 169//1 154//1
f 27//1 170//1 155//1
f 170//1 171//1 156//1
f 171//1 172//1 157//1
f 172//1 173//1 158//1
f 173//1 174//1 159//1
f 174//1 175//1 160//1
f 175//1 176//1 161//1
f 176//1 177//1 162//1
f 177//1 178//1 163//1
f 178//1 179//1 164//1
f 179//1 180//1 165//1
f 180//1 181//1 166//1
f 181//1 182//1 167//1
f 182//1 183//1 168//1
f 183//1 184//1 169//1
f 28//1 185//1 170//1
f 185//1 186//1 171//1
f 186//1 187//1 172//1
f 187//1 188//1 173//1
f 188//1 189//1 174//1
f 189//1 190//1 175//1
f 190//1 191//1 176//1
f 191//1 192//1 177//1
f 192//1 193//1 178//1
f 193//1 194//1 179//1
f 194//1 195//1 180//1
f 195//1 196//1 181//1
f 196//1 197//1 182//1
f 197//1 198//1 183//1
f 198//1 199//1 184//1
f 29//1 200//1 185//1
f 200//1 201//1 186//1
f 201//1 202//1 187//1
f 202//1 203//1 188//1
f 203//1 204//1 189//1
f 204//1 205//1 190//1
f 205//1 206//1 191//1
f 206//1 207//1 192//1
f 207//1 208//1 193//1
f 208//1 209//1 194//1
f 209//1 210//1 195//1
f 210//1 211//1 196//1
f 211//1 212//1 197//1
f 212//1 213//1 198//1
f 213//1 214//1 199//1
f 30//1 215//1 200//1
f 215//1 216//1 201//1
f 216//1 217//1 202//1
f 217//1 218//1 203//1
f 218//1 219//1 204//1
f 219//1 220//1 205//1
f 220//1 221//1 206//1
f 221//1 222//1 207//1
f 222//1 223//1 208//1
f 223//1 224//1 209//1
f 224//1 225//1 210//1
f 225//1 226//1 211//1
f 226//1 227//1 212//1
f 227//1 228//1 213//1
f 228//1 229//1 214//1
f 31//1 230//1 215//1
f 230//1 231//1 216//1
f 231//1 232//1 217//1
f 232//1 233//1 218//1
f 233//1 234//1 219//1
f 234//1 235//1 220//1
f 235//1 236//1 221//1
f 236//1 237//1 222//1
f 237//1 238//1 223//1
f 238//1 239//1 224//1
f 239//1 240//1 225//1
f 240//1 241//1 226//1
f 241//1 242//1 227//1
f 242//1 243//1 228//1
f 243//1 244//1 229//1
f 32//1 245//1 230//1
f 245//1 246//1 231//1
f 246//1 247//1 232//1
f 247//1 248//1 233//1
f 248//1 249//1 234//1
f 249//1 250//1 235//1
f 250//1 251//1 236//1
f 251//1 252//1 237//1
f 252//1 253//1 238//1
f 253//1 254//1 239//1
f 254//1 255//1 240//1
f 255//1 256//1 241//1
f 256//1 257//1 242//1
f 257//1 258//1 243//1
f 258//1 259//1 244//1
f 33//1 260//1 245//1
f 260//1 261//1 246//1
f 261//1 262//1 247//1
f 262//1 263//1 248//1
f 263//1 264//1 249//1
f 264//1 265//1 250//1
f 265//1 266//1 251//1
f 266//1 267//1 252//1
f 267//1 268//1 253//1
f 268//1 269//1 254//1
f 269//1 270//1 255//1
f 270//1 271//1 256//1
f 271//1 272//1 257//1
f 272//1 273//1 258//1
f 273//1 274//1 259//1
f 34//1 275//1 260//1
f 275//1 276//1 261//1
f 276//1 277//1 262//1
f 277//1 278//1 263//1
f 278//1 279//1 264//1
f 279//1 280//1 265//1
f 280//1 281//1 266//1
f 281//1 282//1 267//1
f 282//1 283//1 268//1
f 283//1 284//1 269//1
f 284//1 285//1 270//1
f 285//1 286//1 271//1
f 286//1 287//1 272//1
f 287//1 288//1 273//1
f 288//1 289//1 274//1
f 2//1 35//1 275//1
f 35//1 36//1 276//1
f 36//1 37//1 277//1
f 37//1 38//1 278//1
f 38//1 39//1 279//1
f 39//1 40//1 280//1
f 40//1 41//1 281//1
f 41//1 42//1 282//1
f 42//1 43//1 283//1
f 43//1 44//1 284//1
f 44//1 45//1 285//1
f 45//1 46//1 286//1
f 46//1 47//1 287//1
f 47//1 48//1 288//1
f 48//1 49//1 289//1
