# Blender 4.0.2
# www.blender.org
mtllib plane_2x2_flat_untextured.mtl
o Plane
v 0.000000 0.000000 0.000000
v 0.125000 0.000000 0.000000
v 0.062500 0.000000 0.000000
v 0.000000 0.000000 0.062500
v 0.000000 0.000000 0.125000
v 0.125000 0.000000 0.062500
v 0.125000 0.000000 0.125000
v 0.062500 0.000000 0.062500
v 0.062500 0.000000 0.125000
vn -0.0000 1.0000 -0.0000
s 0
f 3//1 6//1 2//1
f 8//1 7//1 6//1
f 1//1 8//1 3//1
f 4//1 9//1 8//1
f 3//1 8//1 6//1
f 8//1 9//1 7//1
f 1//1 4//1 8//1
f 4//1 5//1 9//1
