# Blender 4.0.2
# www.blender.org
mtllib sphere-box.mtl
o Cube
v -0.100000 0.026445 0.100000
v -0.100000 -0.026445 0.100000
v -0.100000 0.026445 -0.100000
v -0.100000 -0.026445 -0.100000
v 0.100000 0.026445 0.100000
v 0.100000 -0.026445 0.100000
v 0.100000 0.026445 -0.100000
v 0.100000 -0.026445 -0.100000
v 0.000000 -0.100000 -0.000000
v -0.072361 -0.044722 -0.052573
v 0.027639 -0.044722 -0.085065
v 0.089443 -0.044722 -0.000000
v 0.027639 -0.044722 0.085065
v -0.072361 -0.044722 0.052573
v -0.027639 0.044722 -0.085065
v 0.072361 0.044722 -0.052573
v 0.072361 0.044722 0.052573
v -0.027639 0.044722 0.085065
v -0.089443 0.044722 -0.000000
v 0.000000 0.100000 -0.000000
v 0.016246 -0.085065 -0.050000
v -0.042532 -0.085065 -0.030901
v -0.026287 -0.052574 -0.080901
v -0.085065 -0.052574 -0.000000
v -0.042532 -0.085065 0.030901
v 0.052573 -0.085065 -0.000000
v 0.068819 -0.052574 -0.050000
v 0.016246 -0.085065 0.050000
v 0.068819 -0.052574 0.050000
v -0.026287 -0.052574 0.080901
v -0.068819 0.052574 -0.050000
v 0.026287 0.052574 -0.080901
v 0.085065 0.052574 -0.000000
v 0.026287 0.052574 0.080901
v -0.068819 0.052574 0.050000
v -0.016246 0.085065 -0.050000
v -0.052573 0.085065 -0.000000
v 0.042532 0.085065 -0.030901
v 0.042532 0.085065 0.030901
v -0.016246 0.085065 0.050000
v -0.090055 -0.026445 -0.015358
v -0.081656 -0.026445 -0.043716
v -0.013222 -0.026445 -0.090393
v 0.016343 -0.026445 -0.091169
v 0.091757 -0.026445 -0.012629
v 0.081883 -0.026445 -0.040508
v 0.040365 -0.026445 0.083363
v 0.063829 -0.026445 0.065358
v -0.042435 -0.026445 0.080901
v 0.040365 -0.026445 -0.083363
v 0.091757 -0.026445 0.012629
v 0.016343 -0.026445 0.091169
v -0.081656 -0.026445 0.043716
v -0.013222 -0.026445 0.090393
v 0.081883 -0.026445 0.040508
v 0.063829 -0.026445 -0.065358
v -0.042435 -0.026445 -0.080901
v -0.090055 -0.026445 0.015358
v 0.066810 0.026445 0.064150
v 0.066810 0.026445 0.064150
v 0.042435 0.026445 0.080901
v 0.042435 0.026445 0.080901
v 0.013222 0.026445 0.090393
v 0.013222 0.026445 0.090393
v -0.016343 0.026445 0.091169
v -0.016343 0.026445 0.091169
v -0.040365 0.026445 0.083363
v -0.040365 0.026445 0.083363
v -0.063829 0.026445 0.065358
v -0.063829 0.026445 0.065358
v -0.081883 0.026445 0.040508
v -0.081883 0.026445 0.040508
v -0.091757 0.026445 0.012629
v -0.091757 0.026445 0.012629
v -0.091757 0.026445 -0.012629
v -0.091757 0.026445 -0.012629
v -0.081883 0.026445 -0.040508
v -0.081883 0.026445 -0.040508
v -0.063829 0.026445 -0.065358
v -0.063829 0.026445 -0.065358
v -0.040365 0.026445 -0.083363
v -0.040365 0.026445 -0.083363
v -0.016343 0.026445 -0.091169
v -0.016343 0.026445 -0.091169
v 0.013222 0.026445 -0.090393
v 0.013222 0.026445 -0.090393
v 0.042435 0.026445 -0.080901
v 0.042435 0.026445 -0.080901
v 0.066810 0.026445 -0.064150
v 0.066810 0.026445 -0.064150
v 0.081656 0.026445 -0.043716
v 0.081656 0.026445 -0.043716
v 0.090055 0.026445 -0.015358
v 0.090055 0.026445 -0.015358
v 0.090055 0.026445 0.015358
v 0.090055 0.026445 0.015358
v 0.081656 0.026445 0.043716
v 0.081656 0.026445 0.043716
v 0.063829 -0.026445 0.065358
v 0.040365 -0.026445 0.083363
v 0.016343 -0.026445 0.091169
v -0.013222 -0.026445 0.090393
v -0.042435 -0.026445 0.080901
v -0.066810 -0.026445 0.064150
v -0.066810 -0.026445 0.064150
v -0.081656 -0.026445 0.043716
v -0.090055 -0.026445 0.015358
v -0.090055 -0.026445 -0.015358
v -0.081656 -0.026445 -0.043716
v -0.066810 -0.026445 -0.064150
v -0.066810 -0.026445 -0.064150
v -0.042435 -0.026445 -0.080901
v -0.013222 -0.026445 -0.090393
v 0.016343 -0.026445 -0.091169
v 0.040365 -0.026445 -0.083363
v 0.063829 -0.026445 -0.065358
v 0.081883 -0.026445 -0.040508
v 0.091757 -0.026445 -0.012629
v 0.091757 -0.026445 0.012629
v 0.081883 -0.026445 0.040508
vn -0.0000 -0.0000 -1.0000
vn 1.0000 -0.0000 -0.0000
vn -1.0000 -0.0000 -0.0000
vn -0.0000 -0.0000 1.0000
vn -0.0000 -1.0000 -0.0000
vn -0.4253 -0.8507 -0.3090
vn 0.1625 -0.8507 -0.5000
vn -0.7236 -0.4472 -0.5257
vn -0.8506 -0.5257 -0.0000
vn 0.5257 -0.8507 -0.0000
vn 0.1625 -0.8507 0.5000
vn -0.4253 -0.8507 0.3090
vn -0.2764 0.4472 -0.8506
vn -0.6882 0.5257 -0.5000
vn -0.1625 0.8507 -0.5000
vn 0.7236 0.4472 -0.5257
vn 0.2629 0.5257 -0.8090
vn 0.4253 0.8507 -0.3090
vn 0.7236 0.4472 0.5257
vn 0.8506 0.5257 -0.0000
vn 0.4253 0.8507 0.3090
vn -0.2764 0.4472 0.8506
vn 0.2629 0.5257 0.8090
vn -0.1625 0.8507 0.5000
vn -0.8944 0.4472 -0.0000
vn -0.6882 0.5257 0.5000
vn -0.5257 0.8507 -0.0000
vn -0.0000 1.0000 -0.0000
vn -0.2629 -0.5257 0.8090
vn -0.7236 -0.4472 0.5257
vn 0.2764 -0.4472 0.8506
vn 0.6882 -0.5257 0.5000
vn 0.8944 -0.4472 -0.0000
vn 0.6882 -0.5257 -0.5000
vn 0.2764 -0.4472 -0.8506
vn -0.2629 -0.5257 -0.8090
vn -0.9418 -0.2848 -0.1785
vn -0.8872 -0.2700 -0.3740
vn -0.1213 -0.2848 -0.9509
vn 0.0815 -0.2700 -0.9594
vn 0.8669 -0.2848 -0.4092
vn 0.9376 -0.2700 -0.2189
vn 0.6571 -0.2848 0.6980
vn 0.4980 -0.2700 0.8241
vn -0.4608 -0.2848 0.8406
vn -0.6299 -0.2700 0.7282
vn -0.6299 -0.2700 -0.7282
vn 0.4980 -0.2700 -0.8241
vn 0.9376 -0.2700 0.2189
vn 0.0815 -0.2700 0.9594
vn -0.8872 -0.2700 0.3740
vn -0.8669 0.2848 0.4092
vn -0.9376 0.2700 0.2189
vn -0.6571 0.2848 0.6980
vn -0.4980 0.2700 0.8241
vn 0.1213 0.2848 0.9509
vn 0.4608 0.2848 0.8406
vn 0.6299 0.2700 0.7282
vn 0.9418 0.2848 0.1785
vn 0.9418 0.2848 -0.1785
vn 0.8872 0.2700 -0.3740
vn 0.4608 0.2848 -0.8406
vn 0.6299 0.2700 -0.7282
vn 0.1213 0.2848 -0.9509
vn -0.0815 0.2700 -0.9594
vn -0.6571 0.2848 -0.6980
vn -0.4980 0.2700 -0.8241
vn -0.8669 0.2848 -0.4092
vn -0.9376 0.2700 -0.2189
vn -0.0815 0.2700 0.9594
vn -0.1213 -0.2848 0.9509
vn 0.8872 0.2700 0.3740
vn 0.8669 -0.2848 0.4092
vn 0.6571 -0.2848 -0.6980
vn -0.4608 -0.2848 -0.8406
vn -0.9418 -0.2848 0.1785
s 0
usemtl blue
f 3//1 8//1 4//1
f 7//2 6//2 8//2
f 1//3 4//3 2//3
f 5//4 2//4 6//4
f 3//28 1//28 76//28
f 5//28 7//28 96//28
f 2//5 4//5 58//5
f 8//5 6//5 45//5
f 3//1 7//1 8//1
f 7//2 5//2 6//2
f 1//3 3//3 4//3
f 5//4 1//4 2//4
f 88//28 89//28 7//28
f 5//28 59//28 62//28
f 5//28 62//28 64//28
f 86//28 88//28 7//28
f 84//28 86//28 7//28
f 1//28 5//28 66//28
f 5//28 64//28 66//28
f 84//28 7//28 3//28
f 82//28 84//28 3//28
f 1//28 66//28 68//28
f 1//28 68//28 70//28
f 80//28 82//28 3//28
f 78//28 80//28 3//28
f 1//28 70//28 72//28
f 1//28 72//28 74//28
f 76//28 78//28 3//28
f 1//28 74//28 76//28
f 7//28 89//28 92//28
f 7//28 92//28 94//28
f 98//28 59//28 5//28
f 7//28 94//28 96//28
f 96//28 98//28 5//28
f 53//5 105//5 2//5
f 4//5 111//5 42//5
f 4//5 42//5 41//5
f 58//5 53//5 2//5
f 4//5 41//5 58//5
f 57//5 111//5 4//5
f 2//5 105//5 49//5
f 2//5 49//5 54//5
f 43//5 57//5 4//5
f 44//5 43//5 4//5
f 6//5 2//5 52//5
f 2//5 54//5 52//5
f 44//5 4//5 8//5
f 50//5 44//5 8//5
f 6//5 52//5 47//5
f 6//5 47//5 48//5
f 56//5 50//5 8//5
f 46//5 56//5 8//5
f 6//5 48//5 55//5
f 6//5 55//5 51//5
f 45//5 46//5 8//5
f 6//5 51//5 45//5
s 1
usemtl green
f 9//5 22//6 21//7
f 10//8 22//6 24//9
f 9//5 21//7 26//10
f 9//5 26//10 28//11
f 9//5 28//11 25//12
f 15//13 31//14 36//15
f 16//16 32//17 38//18
f 17//19 33//20 39//21
f 18//22 34//23 40//24
f 19//25 35//26 37//27
f 37//27 40//24 20//28
f 37//27 35//26 40//24
f 35//26 18//22 40//24
f 40//24 39//21 20//28
f 40//24 34//23 39//21
f 34//23 17//19 39//21
f 39//21 38//18 20//28
f 39//21 33//20 38//18
f 33//20 16//16 38//18
f 38//18 36//15 20//28
f 38//18 32//17 36//15
f 32//17 15//13 36//15
f 36//15 37//27 20//28
f 36//15 31//14 37//27
f 31//14 19//25 37//27
f 25//12 30//29 14//30
f 25//12 28//11 30//29
f 28//11 13//31 30//29
f 28//11 29//32 13//31
f 28//11 26//10 29//32
f 26//10 12//33 29//32
f 26//10 27//34 12//33
f 26//10 21//7 27//34
f 21//7 11//35 27//34
f 24//9 25//12 14//30
f 24//9 22//6 25//12
f 22//6 9//5 25//12
f 21//7 23//36 11//35
f 21//7 22//6 23//36
f 22//6 10//8 23//36
f 10//8 108//37 109//38
f 11//35 113//39 114//40
f 12//33 117//41 118//42
f 13//31 99//43 100//44
f 14//30 103//45 104//46
f 10//8 109//38 110//47
f 11//35 114//40 115//48
f 12//33 118//42 119//49
f 13//31 100//44 101//50
f 14//30 104//46 106//51
f 71//52 19//25 73//53
f 69//54 35//26 71//52
f 18//22 69//54 67//55
f 18//22 63//56 34//23
f 63//56 61//57 34//23
f 17//19 61//57 60//58
f 17//19 95//59 33//20
f 95//59 93//60 33//20
f 16//16 93//60 91//61
f 87//62 16//16 90//63
f 85//64 32//17 87//62
f 15//13 85//64 83//65
f 79//66 15//13 81//67
f 77//68 31//14 79//66
f 19//25 77//68 75//69
f 67//55 65//70 18//22
f 30//29 102//71 103//45
f 13//31 102//71 30//29
f 60//58 97//72 17//19
f 99//43 29//32 120//73
f 12//33 120//73 29//32
f 91//61 90//63 16//16
f 27//34 116//74 117//41
f 116//74 11//35 115//48
f 81//67 15//13 83//65
f 23//36 112//75 113//39
f 112//75 10//8 110//47
f 73//53 19//25 75//69
f 24//9 107//76 108//37
f 107//76 14//30 106//51
f 10//8 24//9 108//37
f 11//35 23//36 113//39
f 12//33 27//34 117//41
f 13//31 29//32 99//43
f 14//30 30//29 103//45
f 71//52 35//26 19//25
f 18//22 35//26 69//54
f 18//22 65//70 63//56
f 17//19 34//23 61//57
f 17//19 97//72 95//59
f 16//16 33//20 93//60
f 87//62 32//17 16//16
f 15//13 32//17 85//64
f 79//66 31//14 15//13
f 19//25 31//14 77//68
f 13//31 101//50 102//71
f 12//33 119//49 120//73
f 116//74 27//34 11//35
f 112//75 23//36 10//8
f 107//76 24//9 14//30
